<mxfile host="app.diagrams.net" agent="Mozilla/5.0 (Windows NT 10.0; Win64; x64) AppleWebKit/537.36 (KHTML, like Gecko) Chrome/130.0.0.0 Safari/537.36" version="24.8.4">
  <diagram name="Page-1" id="W8P2e8QXl9jIIrar-pqP">
    <mxGraphModel dx="1593" dy="858" grid="1" gridSize="10" guides="1" tooltips="1" connect="1" arrows="1" fold="1" page="1" pageScale="1" pageWidth="850" pageHeight="1100" math="0" shadow="0">
      <root>
        <mxCell id="0" />
        <mxCell id="1" parent="0" />
        <mxCell id="U3xS2Xd4ZOhI2V2aKV24-5" value="Moves" style="swimlane;fontStyle=1;align=center;verticalAlign=top;childLayout=stackLayout;horizontal=1;startSize=26;horizontalStack=0;resizeParent=1;resizeParentMax=0;resizeLast=0;collapsible=1;marginBottom=0;whiteSpace=wrap;html=1;" parent="1" vertex="1">
          <mxGeometry x="538" y="82" width="220" height="240" as="geometry" />
        </mxCell>
        <mxCell id="U3xS2Xd4ZOhI2V2aKV24-6" value="~ location: Position (read-only)" style="text;strokeColor=none;fillColor=none;align=left;verticalAlign=top;spacingLeft=4;spacingRight=4;overflow=hidden;rotatable=0;points=[[0,0.5],[1,0.5]];portConstraint=eastwest;whiteSpace=wrap;html=1;" parent="U3xS2Xd4ZOhI2V2aKV24-5" vertex="1">
          <mxGeometry y="26" width="220" height="24" as="geometry" />
        </mxCell>
        <mxCell id="sLbZc5f34y555rs3LQ_W-33" value="~ moveType: enum (read-only)" style="text;strokeColor=none;fillColor=none;align=left;verticalAlign=top;spacingLeft=4;spacingRight=4;overflow=hidden;rotatable=0;points=[[0,0.5],[1,0.5]];portConstraint=eastwest;whiteSpace=wrap;html=1;" parent="U3xS2Xd4ZOhI2V2aKV24-5" vertex="1">
          <mxGeometry y="50" width="220" height="26" as="geometry" />
        </mxCell>
        <mxCell id="RYduX_MG5zRAx5sU0X7O-1" value="+ row: int" style="text;strokeColor=none;fillColor=none;align=left;verticalAlign=top;spacingLeft=4;spacingRight=4;overflow=hidden;rotatable=0;points=[[0,0.5],[1,0.5]];portConstraint=eastwest;whiteSpace=wrap;html=1;" vertex="1" parent="U3xS2Xd4ZOhI2V2aKV24-5">
          <mxGeometry y="76" width="220" height="26" as="geometry" />
        </mxCell>
        <mxCell id="RYduX_MG5zRAx5sU0X7O-3" value="+ column: int" style="text;strokeColor=none;fillColor=none;align=left;verticalAlign=top;spacingLeft=4;spacingRight=4;overflow=hidden;rotatable=0;points=[[0,0.5],[1,0.5]];portConstraint=eastwest;whiteSpace=wrap;html=1;" vertex="1" parent="U3xS2Xd4ZOhI2V2aKV24-5">
          <mxGeometry y="102" width="220" height="26" as="geometry" />
        </mxCell>
        <mxCell id="RYduX_MG5zRAx5sU0X7O-2" value="+ game: Game" style="text;strokeColor=none;fillColor=none;align=left;verticalAlign=top;spacingLeft=4;spacingRight=4;overflow=hidden;rotatable=0;points=[[0,0.5],[1,0.5]];portConstraint=eastwest;whiteSpace=wrap;html=1;" vertex="1" parent="U3xS2Xd4ZOhI2V2aKV24-5">
          <mxGeometry y="128" width="220" height="26" as="geometry" />
        </mxCell>
        <mxCell id="RYduX_MG5zRAx5sU0X7O-13" value="+ user: User" style="text;strokeColor=none;fillColor=none;align=left;verticalAlign=top;spacingLeft=4;spacingRight=4;overflow=hidden;rotatable=0;points=[[0,0.5],[1,0.5]];portConstraint=eastwest;whiteSpace=wrap;html=1;" vertex="1" parent="U3xS2Xd4ZOhI2V2aKV24-5">
          <mxGeometry y="154" width="220" height="26" as="geometry" />
        </mxCell>
        <mxCell id="U3xS2Xd4ZOhI2V2aKV24-7" value="" style="line;strokeWidth=1;fillColor=none;align=left;verticalAlign=middle;spacingTop=-1;spacingLeft=3;spacingRight=3;rotatable=0;labelPosition=right;points=[];portConstraint=eastwest;strokeColor=inherit;" parent="U3xS2Xd4ZOhI2V2aKV24-5" vertex="1">
          <mxGeometry y="180" width="220" height="8" as="geometry" />
        </mxCell>
        <mxCell id="sLbZc5f34y555rs3LQ_W-39" value="toColumn:" style="text;strokeColor=none;fillColor=none;align=left;verticalAlign=top;spacingLeft=4;spacingRight=4;overflow=hidden;rotatable=0;points=[[0,0.5],[1,0.5]];portConstraint=eastwest;whiteSpace=wrap;html=1;" parent="U3xS2Xd4ZOhI2V2aKV24-5" vertex="1">
          <mxGeometry y="188" width="220" height="26" as="geometry" />
        </mxCell>
        <mxCell id="sLbZc5f34y555rs3LQ_W-40" value="toRow:&amp;nbsp;" style="text;strokeColor=none;fillColor=none;align=left;verticalAlign=top;spacingLeft=4;spacingRight=4;overflow=hidden;rotatable=0;points=[[0,0.5],[1,0.5]];portConstraint=eastwest;whiteSpace=wrap;html=1;" parent="U3xS2Xd4ZOhI2V2aKV24-5" vertex="1">
          <mxGeometry y="214" width="220" height="26" as="geometry" />
        </mxCell>
        <mxCell id="U3xS2Xd4ZOhI2V2aKV24-9" value="Game" style="swimlane;fontStyle=1;align=center;verticalAlign=top;childLayout=stackLayout;horizontal=1;startSize=26;horizontalStack=0;resizeParent=1;resizeParentMax=0;resizeLast=0;collapsible=1;marginBottom=0;whiteSpace=wrap;html=1;" parent="1" vertex="1">
          <mxGeometry x="79" y="80" width="220" height="242" as="geometry" />
        </mxCell>
        <mxCell id="sLbZc5f34y555rs3LQ_W-17" value="+ fireman: user" style="text;strokeColor=none;fillColor=none;align=left;verticalAlign=top;spacingLeft=4;spacingRight=4;overflow=hidden;rotatable=0;points=[[0,0.5],[1,0.5]];portConstraint=eastwest;whiteSpace=wrap;html=1;" parent="U3xS2Xd4ZOhI2V2aKV24-9" vertex="1">
          <mxGeometry y="26" width="220" height="26" as="geometry" />
        </mxCell>
        <mxCell id="sLbZc5f34y555rs3LQ_W-16" value="+ arsonist: user" style="text;strokeColor=none;fillColor=none;align=left;verticalAlign=top;spacingLeft=4;spacingRight=4;overflow=hidden;rotatable=0;points=[[0,0.5],[1,0.5]];portConstraint=eastwest;whiteSpace=wrap;html=1;" parent="U3xS2Xd4ZOhI2V2aKV24-9" vertex="1">
          <mxGeometry y="52" width="220" height="26" as="geometry" />
        </mxCell>
        <mxCell id="sLbZc5f34y555rs3LQ_W-57" value="~ List&amp;lt;Moves&amp;gt;" style="text;strokeColor=none;fillColor=none;align=left;verticalAlign=top;spacingLeft=4;spacingRight=4;overflow=hidden;rotatable=0;points=[[0,0.5],[1,0.5]];portConstraint=eastwest;whiteSpace=wrap;html=1;" parent="U3xS2Xd4ZOhI2V2aKV24-9" vertex="1">
          <mxGeometry y="78" width="220" height="26" as="geometry" />
        </mxCell>
        <mxCell id="mMBtxs_xHi3dSldJMzsw-3" value="~ plots: List&amp;lt;plot&amp;gt; (read-only)" style="text;strokeColor=none;fillColor=none;align=left;verticalAlign=top;spacingLeft=4;spacingRight=4;overflow=hidden;rotatable=0;points=[[0,0.5],[1,0.5]];portConstraint=eastwest;whiteSpace=wrap;html=1;" parent="U3xS2Xd4ZOhI2V2aKV24-9" vertex="1">
          <mxGeometry y="104" width="220" height="26" as="geometry" />
        </mxCell>
        <mxCell id="sLbZc5f34y555rs3LQ_W-64" value="+ wInd: enum (read-only)" style="text;strokeColor=none;fillColor=none;align=left;verticalAlign=top;spacingLeft=4;spacingRight=4;overflow=hidden;rotatable=0;points=[[0,0.5],[1,0.5]];portConstraint=eastwest;whiteSpace=wrap;html=1;" parent="U3xS2Xd4ZOhI2V2aKV24-9" vertex="1">
          <mxGeometry y="130" width="220" height="26" as="geometry" />
        </mxCell>
        <mxCell id="U3xS2Xd4ZOhI2V2aKV24-11" value="" style="line;strokeWidth=1;fillColor=none;align=left;verticalAlign=middle;spacingTop=-1;spacingLeft=3;spacingRight=3;rotatable=0;labelPosition=right;points=[];portConstraint=eastwest;strokeColor=inherit;" parent="U3xS2Xd4ZOhI2V2aKV24-9" vertex="1">
          <mxGeometry y="156" width="220" height="8" as="geometry" />
        </mxCell>
        <mxCell id="U3xS2Xd4ZOhI2V2aKV24-12" value="int : Score" style="text;strokeColor=none;fillColor=none;align=left;verticalAlign=top;spacingLeft=4;spacingRight=4;overflow=hidden;rotatable=0;points=[[0,0.5],[1,0.5]];portConstraint=eastwest;whiteSpace=wrap;html=1;" parent="U3xS2Xd4ZOhI2V2aKV24-9" vertex="1">
          <mxGeometry y="164" width="220" height="26" as="geometry" />
        </mxCell>
        <mxCell id="mMBtxs_xHi3dSldJMzsw-1" value="adjacentTo: boolean" style="text;strokeColor=none;fillColor=none;align=left;verticalAlign=top;spacingLeft=4;spacingRight=4;overflow=hidden;rotatable=0;points=[[0,0.5],[1,0.5]];portConstraint=eastwest;whiteSpace=wrap;html=1;" parent="U3xS2Xd4ZOhI2V2aKV24-9" vertex="1">
          <mxGeometry y="190" width="220" height="26" as="geometry" />
        </mxCell>
        <mxCell id="mMBtxs_xHi3dSldJMzsw-2" value="isFInished: boolean" style="text;strokeColor=none;fillColor=none;align=left;verticalAlign=top;spacingLeft=4;spacingRight=4;overflow=hidden;rotatable=0;points=[[0,0.5],[1,0.5]];portConstraint=eastwest;whiteSpace=wrap;html=1;" parent="U3xS2Xd4ZOhI2V2aKV24-9" vertex="1">
          <mxGeometry y="216" width="220" height="26" as="geometry" />
        </mxCell>
        <mxCell id="U3xS2Xd4ZOhI2V2aKV24-17" value="Plot" style="swimlane;fontStyle=1;align=center;verticalAlign=top;childLayout=stackLayout;horizontal=1;startSize=26;horizontalStack=0;resizeParent=1;resizeParentMax=0;resizeLast=0;collapsible=1;marginBottom=0;whiteSpace=wrap;html=1;" parent="1" vertex="1">
          <mxGeometry x="477" y="600" width="220" height="156" as="geometry" />
        </mxCell>
        <mxCell id="U3xS2Xd4ZOhI2V2aKV24-18" value="~ charred: boolean" style="text;strokeColor=none;fillColor=none;align=left;verticalAlign=top;spacingLeft=4;spacingRight=4;overflow=hidden;rotatable=0;points=[[0,0.5],[1,0.5]];portConstraint=eastwest;whiteSpace=wrap;html=1;" parent="U3xS2Xd4ZOhI2V2aKV24-17" vertex="1">
          <mxGeometry y="26" width="220" height="26" as="geometry" />
        </mxCell>
        <mxCell id="sLbZc5f34y555rs3LQ_W-11" value="~ burnable: boolean" style="text;strokeColor=none;fillColor=none;align=left;verticalAlign=top;spacingLeft=4;spacingRight=4;overflow=hidden;rotatable=0;points=[[0,0.5],[1,0.5]];portConstraint=eastwest;whiteSpace=wrap;html=1;" parent="U3xS2Xd4ZOhI2V2aKV24-17" vertex="1">
          <mxGeometry y="52" width="220" height="26" as="geometry" />
        </mxCell>
        <mxCell id="sLbZc5f34y555rs3LQ_W-19" value="~ wet: boolean" style="text;strokeColor=none;fillColor=none;align=left;verticalAlign=top;spacingLeft=4;spacingRight=4;overflow=hidden;rotatable=0;points=[[0,0.5],[1,0.5]];portConstraint=eastwest;whiteSpace=wrap;html=1;" parent="U3xS2Xd4ZOhI2V2aKV24-17" vertex="1">
          <mxGeometry y="78" width="220" height="26" as="geometry" />
        </mxCell>
        <mxCell id="mMBtxs_xHi3dSldJMzsw-4" value="+ row: int" style="text;strokeColor=none;fillColor=none;align=left;verticalAlign=top;spacingLeft=4;spacingRight=4;overflow=hidden;rotatable=0;points=[[0,0.5],[1,0.5]];portConstraint=eastwest;whiteSpace=wrap;html=1;" parent="U3xS2Xd4ZOhI2V2aKV24-17" vertex="1">
          <mxGeometry y="104" width="220" height="26" as="geometry" />
        </mxCell>
        <mxCell id="RYduX_MG5zRAx5sU0X7O-19" value="+ column: int" style="text;strokeColor=none;fillColor=none;align=left;verticalAlign=top;spacingLeft=4;spacingRight=4;overflow=hidden;rotatable=0;points=[[0,0.5],[1,0.5]];portConstraint=eastwest;whiteSpace=wrap;html=1;" vertex="1" parent="U3xS2Xd4ZOhI2V2aKV24-17">
          <mxGeometry y="130" width="220" height="26" as="geometry" />
        </mxCell>
        <mxCell id="sLbZc5f34y555rs3LQ_W-66" value="" style="endArrow=open;html=1;rounded=0;startArrow=diamondThin;startFill=0;strokeWidth=2;targetPerimeterSpacing=0;endSize=20;startSize=20;endFill=0;entryX=0;entryY=0;entryDx=0;entryDy=0;exitX=0.814;exitY=1.085;exitDx=0;exitDy=0;exitPerimeter=0;" parent="1" source="mMBtxs_xHi3dSldJMzsw-2" target="U3xS2Xd4ZOhI2V2aKV24-17" edge="1">
          <mxGeometry width="50" height="50" relative="1" as="geometry">
            <mxPoint x="216" y="290" as="sourcePoint" />
            <mxPoint x="219" y="550" as="targetPoint" />
          </mxGeometry>
        </mxCell>
        <mxCell id="sLbZc5f34y555rs3LQ_W-67" value="&amp;lt;&amp;lt;enumeration&amp;gt;&amp;gt;&lt;div&gt;Wind&lt;/div&gt;" style="swimlane;fontStyle=1;align=center;verticalAlign=top;childLayout=stackLayout;horizontal=1;startSize=40;horizontalStack=0;resizeParent=1;resizeParentMax=0;resizeLast=0;collapsible=1;marginBottom=0;whiteSpace=wrap;html=1;" parent="1" vertex="1">
          <mxGeometry x="540" y="380" width="220" height="144" as="geometry">
            <mxRectangle x="560" y="500" width="140" height="40" as="alternateBounds" />
          </mxGeometry>
        </mxCell>
        <mxCell id="sLbZc5f34y555rs3LQ_W-68" value="NORTH" style="text;strokeColor=none;fillColor=none;align=left;verticalAlign=top;spacingLeft=4;spacingRight=4;overflow=hidden;rotatable=0;points=[[0,0.5],[1,0.5]];portConstraint=eastwest;whiteSpace=wrap;html=1;" parent="sLbZc5f34y555rs3LQ_W-67" vertex="1">
          <mxGeometry y="40" width="220" height="26" as="geometry" />
        </mxCell>
        <mxCell id="sLbZc5f34y555rs3LQ_W-73" value="SOUTH" style="text;strokeColor=none;fillColor=none;align=left;verticalAlign=top;spacingLeft=4;spacingRight=4;overflow=hidden;rotatable=0;points=[[0,0.5],[1,0.5]];portConstraint=eastwest;whiteSpace=wrap;html=1;" parent="sLbZc5f34y555rs3LQ_W-67" vertex="1">
          <mxGeometry y="66" width="220" height="26" as="geometry" />
        </mxCell>
        <mxCell id="sLbZc5f34y555rs3LQ_W-72" value="EAST" style="text;strokeColor=none;fillColor=none;align=left;verticalAlign=top;spacingLeft=4;spacingRight=4;overflow=hidden;rotatable=0;points=[[0,0.5],[1,0.5]];portConstraint=eastwest;whiteSpace=wrap;html=1;" parent="sLbZc5f34y555rs3LQ_W-67" vertex="1">
          <mxGeometry y="92" width="220" height="26" as="geometry" />
        </mxCell>
        <mxCell id="sLbZc5f34y555rs3LQ_W-69" value="WEST" style="text;strokeColor=none;fillColor=none;align=left;verticalAlign=top;spacingLeft=4;spacingRight=4;overflow=hidden;rotatable=0;points=[[0,0.5],[1,0.5]];portConstraint=eastwest;whiteSpace=wrap;html=1;" parent="sLbZc5f34y555rs3LQ_W-67" vertex="1">
          <mxGeometry y="118" width="220" height="26" as="geometry" />
        </mxCell>
        <mxCell id="sLbZc5f34y555rs3LQ_W-76" value="" style="endArrow=none;html=1;rounded=0;exitX=1;exitY=0;exitDx=0;exitDy=0;startArrow=diamondThin;startFill=1;strokeWidth=2;targetPerimeterSpacing=0;endSize=20;startSize=20;endFill=0;entryX=0;entryY=0;entryDx=0;entryDy=0;" parent="1" edge="1">
          <mxGeometry width="50" height="50" relative="1" as="geometry">
            <mxPoint x="299" y="98" as="sourcePoint" />
            <mxPoint x="538" y="100" as="targetPoint" />
          </mxGeometry>
        </mxCell>
        <mxCell id="sLbZc5f34y555rs3LQ_W-77" value="" style="endArrow=open;html=1;rounded=0;exitX=1.011;exitY=-0.026;exitDx=0;exitDy=0;startArrow=none;startFill=0;strokeWidth=2;targetPerimeterSpacing=0;endSize=20;startSize=20;endFill=0;entryX=0;entryY=0;entryDx=0;entryDy=0;exitPerimeter=0;" parent="1" source="mMBtxs_xHi3dSldJMzsw-2" target="sLbZc5f34y555rs3LQ_W-67" edge="1">
          <mxGeometry width="50" height="50" relative="1" as="geometry">
            <mxPoint x="341" y="310" as="sourcePoint" />
            <mxPoint x="340" y="456" as="targetPoint" />
          </mxGeometry>
        </mxCell>
        <mxCell id="sLbZc5f34y555rs3LQ_W-79" value="Each instance of &lt;b&gt;Game&amp;nbsp;&amp;nbsp;&lt;/b&gt;will use one of the four types of&amp;nbsp;&lt;b&gt;&amp;nbsp;Wind&lt;/b&gt;&amp;nbsp;" style="whiteSpace=wrap;html=1;fillColor=none;strokeColor=none;" parent="1" vertex="1">
          <mxGeometry x="410" y="404" width="120" height="60" as="geometry" />
        </mxCell>
        <mxCell id="sLbZc5f34y555rs3LQ_W-80" value="Each &lt;b&gt;Game consists of &lt;/b&gt;Moves when a Game is created&lt;span style=&quot;color: rgba(0, 0, 0, 0); font-family: monospace; font-size: 0px; text-align: start; text-wrap-mode: nowrap;&quot;&gt;%3CmxGraphModel%3E%3Croot%3E%3CmxCell%20id%3D%220%22%2F%3E%3CmxCell%20id%3D%221%22%20parent%3D%220%22%2F%3E%3CmxCell%20id%3D%222%22%20value%3D%22%22%20style%3D%22endArrow%3Dopen%3Bhtml%3D1%3Brounded%3D0%3BexitX%3D1%3BexitY%3D0.5%3BexitDx%3D0%3BexitDy%3D0%3BstartArrow%3DdiamondThin%3BstartFill%3D0%3BstrokeWidth%3D2%3BtargetPerimeterSpacing%3D0%3BendSize%3D20%3BstartSize%3D20%3BendFill%3D0%3B%22%20edge%3D%221%22%20parent%3D%221%22%3E%3CmxGeometry%20width%3D%2250%22%20height%3D%2250%22%20relative%3D%221%22%20as%3D%22geometry%22%3E%3CmxPoint%20x%3D%22220%22%20y%3D%22404%22%20as%3D%22sourcePoint%22%2F%3E%3CmxPoint%20x%3D%22219%22%20y%3D%22550%22%20as%3D%22targetPoint%22%2F%3E%3C%2FmxGeometry%3E%3C%2FmxCell%3E%3C%2Froot%3E%3C%2FmxGraphModel%3E&lt;b&gt;Moves&lt;/b&gt;&lt;/span&gt;" style="whiteSpace=wrap;html=1;strokeColor=none;fillColor=none;" parent="1" vertex="1">
          <mxGeometry x="580" y="26" width="120" height="60" as="geometry" />
        </mxCell>
        <mxCell id="sLbZc5f34y555rs3LQ_W-83" value="Each &lt;b&gt;Game&amp;nbsp;&lt;/b&gt;consists of many&lt;b&gt; Plots&lt;/b&gt;&amp;nbsp;when a &lt;b&gt;Game&lt;/b&gt;&amp;nbsp;is created&lt;span style=&quot;color: rgba(0, 0, 0, 0); font-family: monospace; font-size: 0px; text-align: start; text-wrap-mode: nowrap;&quot;&gt;%3CmxGraphModel%3E%3Croot%3E%3CmxCell%20id%3D%220%22%2F%3E%3CmxCell%20id%3D%221%22%20parent%3D%220%22%2F%3E%3CmxCell%20id%3D%222%22%20value%3D%22%22%20style%3D%22endArrow%3Dopen%3Bhtml%3D1%3Brounded%3D0%3BexitX%3D1%3BexitY%3D0.5%3BexitDx%3D0%3BexitDy%3D0%3BstartArrow%3DdiamondThin%3BstartFill%3D0%3BstrokeWidth%3D2%3BtargetPerimeterSpacing%3D0%3BendSize%3D20%3BstartSize%3D20%3BendFill%3D0%3B%22%20edge%3D%221%22%20parent%3D%221%22%3E%3CmxGeometry%20width%3D%2250%22%20height%3D%2250%22%20relative%3D%221%22%20as%3D%22geometry%22%3E%3CmxPoint%20x%3D%22220%22%20y%3D%22404%22%20as%3D%22sourcePoint%22%2F%3E%3CmxPoint%20x%3D%22219%22%20y%3D%22550%22%20as%3D%22targetPoint%22%2F%3E%3C%2FmxGeometry%3E%3C%2FmxCell%3E%3C%2Froot%3E%3C%2FmxGraphModel%3E&lt;b&gt;Moves&lt;/b&gt;&lt;/span&gt;" style="whiteSpace=wrap;html=1;strokeColor=none;fillColor=none;" parent="1" vertex="1">
          <mxGeometry x="505" y="759" width="170" height="31" as="geometry" />
        </mxCell>
        <mxCell id="RYduX_MG5zRAx5sU0X7O-4" value="User" style="swimlane;fontStyle=1;align=center;verticalAlign=top;childLayout=stackLayout;horizontal=1;startSize=26;horizontalStack=0;resizeParent=1;resizeParentMax=0;resizeLast=0;collapsible=1;marginBottom=0;whiteSpace=wrap;html=1;" vertex="1" parent="1">
          <mxGeometry x="80" y="522" width="240" height="208" as="geometry" />
        </mxCell>
        <mxCell id="RYduX_MG5zRAx5sU0X7O-5" value="+ firemanGames: List&amp;lt;Game&amp;gt;" style="text;strokeColor=none;fillColor=none;align=left;verticalAlign=top;spacingLeft=4;spacingRight=4;overflow=hidden;rotatable=0;points=[[0,0.5],[1,0.5]];portConstraint=eastwest;whiteSpace=wrap;html=1;" vertex="1" parent="RYduX_MG5zRAx5sU0X7O-4">
          <mxGeometry y="26" width="240" height="26" as="geometry" />
        </mxCell>
        <mxCell id="RYduX_MG5zRAx5sU0X7O-8" value="+ arsonistGames: List&amp;lt;Game&amp;gt;" style="text;strokeColor=none;fillColor=none;align=left;verticalAlign=top;spacingLeft=4;spacingRight=4;overflow=hidden;rotatable=0;points=[[0,0.5],[1,0.5]];portConstraint=eastwest;whiteSpace=wrap;html=1;" vertex="1" parent="RYduX_MG5zRAx5sU0X7O-4">
          <mxGeometry y="52" width="240" height="26" as="geometry" />
        </mxCell>
        <mxCell id="RYduX_MG5zRAx5sU0X7O-18" value="+ id: Long {readOnly}" style="text;strokeColor=none;fillColor=none;align=left;verticalAlign=top;spacingLeft=4;spacingRight=4;overflow=hidden;rotatable=0;points=[[0,0.5],[1,0.5]];portConstraint=eastwest;whiteSpace=wrap;html=1;" vertex="1" parent="RYduX_MG5zRAx5sU0X7O-4">
          <mxGeometry y="78" width="240" height="26" as="geometry" />
        </mxCell>
        <mxCell id="RYduX_MG5zRAx5sU0X7O-17" value="+ created: Instant {readOnly]" style="text;strokeColor=none;fillColor=none;align=left;verticalAlign=top;spacingLeft=4;spacingRight=4;overflow=hidden;rotatable=0;points=[[0,0.5],[1,0.5]];portConstraint=eastwest;whiteSpace=wrap;html=1;" vertex="1" parent="RYduX_MG5zRAx5sU0X7O-4">
          <mxGeometry y="104" width="240" height="26" as="geometry" />
        </mxCell>
        <mxCell id="RYduX_MG5zRAx5sU0X7O-16" value="+ displayName: String&amp;nbsp;" style="text;strokeColor=none;fillColor=none;align=left;verticalAlign=top;spacingLeft=4;spacingRight=4;overflow=hidden;rotatable=0;points=[[0,0.5],[1,0.5]];portConstraint=eastwest;whiteSpace=wrap;html=1;" vertex="1" parent="RYduX_MG5zRAx5sU0X7O-4">
          <mxGeometry y="130" width="240" height="26" as="geometry" />
        </mxCell>
        <mxCell id="RYduX_MG5zRAx5sU0X7O-15" value="+ oauthKey: String" style="text;strokeColor=none;fillColor=none;align=left;verticalAlign=top;spacingLeft=4;spacingRight=4;overflow=hidden;rotatable=0;points=[[0,0.5],[1,0.5]];portConstraint=eastwest;whiteSpace=wrap;html=1;" vertex="1" parent="RYduX_MG5zRAx5sU0X7O-4">
          <mxGeometry y="156" width="240" height="26" as="geometry" />
        </mxCell>
        <mxCell id="RYduX_MG5zRAx5sU0X7O-14" value="+ externalKey: String {readOnly}" style="text;strokeColor=none;fillColor=none;align=left;verticalAlign=top;spacingLeft=4;spacingRight=4;overflow=hidden;rotatable=0;points=[[0,0.5],[1,0.5]];portConstraint=eastwest;whiteSpace=wrap;html=1;" vertex="1" parent="RYduX_MG5zRAx5sU0X7O-4">
          <mxGeometry y="182" width="240" height="26" as="geometry" />
        </mxCell>
        <mxCell id="RYduX_MG5zRAx5sU0X7O-9" value="" style="endArrow=diamondThin;endFill=1;endSize=24;html=1;rounded=0;entryX=0.344;entryY=0;entryDx=0;entryDy=0;exitX=0.37;exitY=1.128;exitDx=0;exitDy=0;exitPerimeter=0;entryPerimeter=0;" edge="1" parent="1" source="mMBtxs_xHi3dSldJMzsw-2" target="RYduX_MG5zRAx5sU0X7O-4">
          <mxGeometry width="160" relative="1" as="geometry">
            <mxPoint x="-200" y="160" as="sourcePoint" />
            <mxPoint x="-40" y="160" as="targetPoint" />
          </mxGeometry>
        </mxCell>
        <mxCell id="RYduX_MG5zRAx5sU0X7O-12" value="Plays as &lt;b&gt;Arsonist&lt;/b&gt;" style="edgeLabel;html=1;align=center;verticalAlign=middle;resizable=0;points=[];" vertex="1" connectable="0" parent="RYduX_MG5zRAx5sU0X7O-9">
          <mxGeometry x="0.188" relative="1" as="geometry">
            <mxPoint y="1" as="offset" />
          </mxGeometry>
        </mxCell>
        <mxCell id="RYduX_MG5zRAx5sU0X7O-10" value="" style="endArrow=diamondThin;endFill=1;endSize=24;html=1;rounded=0;entryX=0;entryY=0;entryDx=0;entryDy=0;exitX=-0.006;exitY=1.128;exitDx=0;exitDy=0;exitPerimeter=0;" edge="1" parent="1" source="mMBtxs_xHi3dSldJMzsw-2" target="RYduX_MG5zRAx5sU0X7O-4">
          <mxGeometry width="160" relative="1" as="geometry">
            <mxPoint x="39" y="77" as="sourcePoint" />
            <mxPoint x="-170" y="260" as="targetPoint" />
          </mxGeometry>
        </mxCell>
        <mxCell id="RYduX_MG5zRAx5sU0X7O-11" value="Plays as F&lt;b&gt;ireman&lt;/b&gt;" style="edgeLabel;html=1;align=center;verticalAlign=middle;resizable=0;points=[];" vertex="1" connectable="0" parent="RYduX_MG5zRAx5sU0X7O-10">
          <mxGeometry x="-0.0259" y="1" relative="1" as="geometry">
            <mxPoint y="-16" as="offset" />
          </mxGeometry>
        </mxCell>
        <mxCell id="RYduX_MG5zRAx5sU0X7O-20" value="&lt;b&gt;Users &lt;/b&gt;own &lt;b&gt;Games &lt;/b&gt;and they can play as either &lt;b&gt;Fireman &lt;/b&gt;or &lt;b&gt;Arsonist&lt;/b&gt;" style="whiteSpace=wrap;html=1;strokeColor=none;fillColor=none;" vertex="1" parent="1">
          <mxGeometry x="104" y="740" width="170" height="31" as="geometry" />
        </mxCell>
      </root>
    </mxGraphModel>
  </diagram>
</mxfile>
